<svg id="Google__G__Logo" xmlns="http://www.w3.org/2000/svg" width="39.093" height="39.942" viewBox="0 0 39.093 39.942">
  <path id="Path_2" data-name="Path 2" d="M4.368,53.017a23.138,23.138,0,0,0-.316-3.778H-14.754v7.506H-3.986A9.271,9.271,0,0,1-7.981,62.7V67.7h6.424C2.2,64.217,4.368,59.091,4.368,53.017Z" transform="translate(34.725 -32.597)" fill="#4285f4"/>
  <path id="Path_3" data-name="Path 3" d="M-7.64,69.689a19.024,19.024,0,0,0,13.2-4.843L-.866,59.853A12.048,12.048,0,0,1-7.64,61.784a11.927,11.927,0,0,1-11.2-8.255h-6.624v5.143A19.941,19.941,0,0,0-7.64,69.689Z" transform="translate(27.611 -29.747)" fill="#34a853"/>
  <path id="Path_4" data-name="Path 4" d="M-17.983,58.624a11.589,11.589,0,0,1-.632-3.811A12.04,12.04,0,0,1-17.983,51V45.859h-6.624a19.739,19.739,0,0,0-2.147,8.954,19.739,19.739,0,0,0,2.147,8.954Z" transform="translate(26.754 -34.842)" fill="#fbbc05"/>
  <path id="Path_5" data-name="Path 5" d="M-7.64,47.144a10.835,10.835,0,0,1,7.656,3l5.692-5.692A19.094,19.094,0,0,0-7.64,39.239,19.941,19.941,0,0,0-25.464,50.256L-18.84,55.4A11.927,11.927,0,0,1-7.64,47.144Z" transform="translate(27.611 -39.239)" fill="#ea4335"/>
</svg>
