<svg xmlns="http://www.w3.org/2000/svg" width="211.558" height="211.558" viewBox="0 0 211.558 211.558">
  <path id="play_circle_FILL1_wght400_GRAD0_opsz48" d="M109.779,215.558a102.351,102.351,0,0,1-40.989-8.33A106.573,106.573,0,0,1,12.33,150.768a105.012,105.012,0,0,1,0-81.979A106.573,106.573,0,0,1,68.79,12.33a105.012,105.012,0,0,1,81.979,0A106.573,106.573,0,0,1,207.228,68.79a105.012,105.012,0,0,1,0,81.979,106.573,106.573,0,0,1-56.459,56.459A102.351,102.351,0,0,1,109.779,215.558ZM84.127,154.735l70.607-44.956L84.127,64.823Z" transform="translate(-4 -4)" fill="#fff"/>
</svg>
