<svg id="washer-light_800x800" xmlns="http://www.w3.org/2000/svg" width="194.975" height="222.67" viewBox="0 0 194.975 222.67">
  <path id="Path_6" data-name="Path 6" d="M184.058,222.67H11.489A32.051,32.051,0,0,1,6.4,220.165,13.963,13.963,0,0,1,.3,208.057q.042-90.014,0-180A26.522,26.522,0,0,1,2.861,16.2C6.34,9.046,11.74,3.841,19.505,1.42,21.092.946,22.706.473,24.293,0H171.255c1.948.585,3.925,1.141,5.845,1.781A26.818,26.818,0,0,1,190.822,12.8c3.312,5.038,4.453,10.6,4.453,16.617q-.084,87.76-.056,175.547c0,1.587,0,3.145-.083,4.732a13.216,13.216,0,0,1-7.292,11.217C186.619,221.612,185.311,222.085,184.058,222.67ZM14.579,117.542v88.233c0,2.672,0,2.672,2.644,2.672H178.352c2.616,0,2.616,0,2.616-2.7V45.592c0-5.511.056-11.05-.028-16.561a14.552,14.552,0,0,0-4.064-10.465,14.962,14.962,0,0,0-11.217-4.342H45.725c-5.428,0-10.855-.028-16.283.028a15.082,15.082,0,0,0-7.96,2.088c-4.9,3.062-6.9,7.654-6.9,13.277Q14.579,73.578,14.579,117.542Z" transform="translate(-0.3)" fill="#fff"/>
  <path id="Path_7" data-name="Path 7" d="M169.822,339.13c-38.967-.612-67.692-30.561-69.64-65.743-1-18.12,4.119-34.4,15.7-48.375,12.887-15.531,29.532-24.187,49.794-25.329,19.233-1.058,36.184,4.732,50.546,17.647,14.223,12.776,22.044,28.836,23.074,47.9C241.577,307.594,208.065,338.74,169.822,339.13Zm55.306-69.918A55.546,55.546,0,0,0,166.4,214.073c-26.526,1.364-53.719,24.661-51.743,58.7,1.642,27.973,24.855,51.938,55.222,51.715C201.58,324.294,224.682,299.16,225.127,269.211Z" transform="translate(-72.292 -144.015)" fill="#fff"/>
  <path id="Path_8" data-name="Path 8" d="M214.045,106.516a7.224,7.224,0,0,1-14.446,0,7.4,7.4,0,0,1,7.237-7.32C210.594,99.308,214.351,102.425,214.045,106.516Z" transform="translate(-144.127 -71.585)" fill="#fff"/>
  <path id="Path_9" data-name="Path 9" d="M114.217,106.859c0,4.2-2.867,6.931-7.181,6.931a7.17,7.17,0,0,1-7.237-7.07,7.621,7.621,0,0,1,7.459-7.32A7.171,7.171,0,0,1,114.217,106.859Z" transform="translate(-72.105 -71.733)" fill="#fff"/>
  <path id="Path_10" data-name="Path 10" d="M242.913,487.795a43.02,43.02,0,0,1-24.243-8.072,41.693,41.693,0,0,1-13.082-15.392A44.521,44.521,0,0,1,201.44,450.3c-.223-1.753.111-2,1.781-1.336a20.307,20.307,0,0,0,15.837-.111c2.561-1.058,5.094-2.282,6.931-4.509.64-.807,1.113-.473,1.726.056a22.609,22.609,0,0,0,12.637,5.9,21.218,21.218,0,0,0,15.225-3.952c.946-.668,1.781-1.475,2.756-2.115a1.394,1.394,0,0,1,1.364.028c3.507,3.563,7.877,5.2,12.692,6.04,3.646.64,6.986-.334,10.326-1.447,1.5-.5,1.837-.334,1.642,1.141a43.351,43.351,0,0,1-3.785,13.555,42.36,42.36,0,0,1-8.406,11.829,39.61,39.61,0,0,1-18.315,10.6A96.368,96.368,0,0,1,242.913,487.795Z" transform="translate(-145.411 -320.319)" fill="#fff"/>
</svg>
